<?xml version="1.0" standalone="no"?>
<!DOCTYPE svg PUBLIC "-//W3C//DTD SVG 20010904//EN"
 "http://www.w3.org/TR/2001/REC-SVG-20010904/DTD/svg10.dtd">
<svg version="1.0" xmlns="http://www.w3.org/2000/svg"
 width="700.000000pt" height="700.000000pt" viewBox="0 0 700.000000 700.000000"
 preserveAspectRatio="xMidYMid meet">
<metadata>
Created by potrace 1.14, written by Peter Selinger 2001-2017
</metadata>
<g transform="translate(0.000000,700.000000) scale(0.100000,-0.100000)"
fill="#000000" stroke="none">
<path d="M4740 6557 c-184 -52 -273 -248 -189 -415 54 -108 143 -162 268 -162
112 1 203 59 259 165 36 69 37 178 3 249 -62 126 -214 199 -341 163z"/>
<path d="M3115 6113 c-132 -48 -218 -183 -200 -313 29 -207 253 -323 434 -224
63 33 96 70 129 143 21 46 24 64 20 130 -3 50 -12 90 -26 116 -25 51 -98 119
-149 140 -60 25 -150 29 -208 8z"/>
<path d="M6050 5827 c-216 -61 -292 -329 -139 -487 145 -149 397 -108 483 79
30 66 29 190 -2 248 -69 131 -211 197 -342 160z"/>
<path d="M4290 5675 c-276 -46 -515 -169 -710 -365 -90 -89 -186 -218 -225
-301 l-17 -36 -102 33 c-208 67 -415 98 -666 98 -356 0 -676 -74 -990 -230
-680 -337 -1148 -979 -1265 -1734 -37 -237 -30 -555 16 -798 98 -514 382
-1001 777 -1333 124 -104 185 -134 272 -133 218 2 357 227 260 422 -26 50 -49
76 -139 151 -301 251 -504 593 -588 990 -24 113 -27 148 -27 336 -1 225 6 285
54 470 231 884 1119 1430 2000 1231 450 -102 845 -393 1084 -799 70 -118 117
-227 167 -382 34 -105 47 -132 84 -173 60 -67 128 -97 220 -96 60 1 83 6 163
43 390 178 819 109 1127 -181 151 -143 249 -307 302 -506 24 -87 27 -115 27
-272 0 -147 -4 -187 -22 -252 -86 -312 -270 -547 -536 -685 -164 -84 -226
-166 -226 -298 0 -91 29 -154 100 -218 101 -91 208 -99 359 -27 459 220 788
652 893 1172 19 96 23 143 22 318 0 230 -14 323 -80 520 -155 467 -514 842
-974 1015 -41 16 -79 32 -84 36 -5 4 1 21 12 37 37 51 112 214 137 297 74 245
74 529 -1 768 -97 306 -311 570 -592 731 -244 139 -561 197 -832 151z m337
-590 c169 -32 340 -147 439 -297 130 -194 151 -462 53 -668 -45 -95 -113 -184
-186 -245 -71 -58 -191 -123 -245 -131 l-33 -5 -58 116 c-132 262 -323 507
-542 694 -55 48 -121 102 -147 120 l-47 34 27 50 c15 27 58 82 95 122 169 183
396 257 644 210z"/>
<path d="M6295 4496 c-166 -78 -224 -279 -123 -431 39 -59 101 -101 178 -121
138 -35 274 33 335 167 24 54 27 71 23 134 -4 57 -12 85 -35 126 -33 60 -105
120 -163 138 -65 19 -159 14 -215 -13z"/>
<path d="M2455 3930 c-95 -15 -231 -57 -323 -100 -121 -57 -214 -122 -321
-225 -156 -151 -261 -329 -319 -543 -24 -89 -26 -113 -26 -292 0 -180 2 -203
27 -294 71 -264 272 -553 418 -601 67 -23 168 -16 226 14 105 53 169 165 160
281 -5 78 -28 127 -97 206 -104 119 -150 239 -151 389 0 169 51 297 165 411
224 224 561 233 804 21 35 -31 79 -63 97 -72 148 -70 323 -6 397 144 32 64 31
176 -1 244 -30 62 -165 187 -268 250 -193 116 -364 167 -583 172 -80 2 -172 0
-205 -5z"/>
</g>
</svg>
